# xmcd
#
# Track frame offsets:
#	225
#	15191
#	31701
#	45582
#	63704
#	73409
#	88186
#	107140
#	124367
#	146595
#
# Disc length: 2160 seconds
#
# Revision: 0
# Processed by: cddbd v1.5.2PL0 Copyright (c) Steve Scherf et al.
# Submitted via: dBpowerAMP V4.0
#
DISCID=8d086d0a
DTITLE=Flynnville Train - Flynnville Train
DYEAR=2007
DGENRE=Country
TTITLE0=Last Good Time
TTITLE1=Nowhere Than Somewhere
TTITLE2=Truck Stop in the Sky
TTITLE3=Tequila Sheila
TTITLE4=Baby's in Black
TTITLE5=Tell Mama
TTITLE6=Redneck Side of Me
TTITLE7=High on the Mountain
TTITLE8=Red Nekkid
TTITLE9=Honky Tonk Jail
EXTD=from CoN
EXTT0=
EXTT1=
EXTT2=
EXTT3=
EXTT4=
EXTT5=
EXTT6=
EXTT7=
EXTT8=
EXTT9=
PLAYORDER=
